<?xml version="1.0" encoding="utf-8"?>
<!-- Generator: Adobe Illustrator 26.5.0, SVG Export Plug-In . SVG Version: 6.00 Build 0)  -->
<svg version="1.1" id="Capa_1" xmlns="http://www.w3.org/2000/svg" xmlns:xlink="http://www.w3.org/1999/xlink" x="0px" y="0px"
	 viewBox="0 0 32 32" style="enable-background:new 0 0 32 32;" xml:space="preserve">
<path d="M27.63,15.34c-0.45-0.28-0.94-0.54-1.38-0.87c-0.16-0.12-0.28-0.4-0.29-0.62c-0.03-0.99-0.01-1.99-0.01-3.05
	c-1.56,0.64-3.07,1.24-4.56,1.87c-2.07,0.88-4.13,1.8-6.2,2.69c-0.18,0.08-0.46,0.06-0.64-0.02c-4.23-1.81-8.46-3.62-12.67-5.46
	c-0.41-0.18-0.73-0.56-1.1-0.85c0.36-0.33,0.67-0.78,1.09-0.98c3.16-1.47,6.34-2.89,9.52-4.32c1-0.45,1.98-0.94,2.99-1.33
	c0.35-0.13,0.84-0.15,1.18,0c3.99,1.71,7.96,3.47,11.94,5.22c0.43,0.19,0.86,0.37,1.26,0.6c0.71,0.4,0.75,1.11,0.01,1.35
	c-1.09,0.36-1.18,1.1-1.15,2.04C27.66,12.85,27.63,14.08,27.63,15.34z"/>
<path d="M25.93,27.43c-4.19,2.44-7.78,0.58-9.41-1.82c-1.91-2.79-1.5-6.7,1.18-8.95c2.47-2.07,5.95-2.32,8.71-0.13
	c2.44,1.94,3.59,5.95,1.1,9.41c0.94,0.98,1.88,1.93,2.79,2.92c0.22,0.24,0.52,0.6,0.48,0.86c-0.06,0.38-0.31,0.88-0.63,1.03
	c-0.26,0.13-0.82-0.06-1.08-0.3c-0.89-0.79-1.69-1.66-2.54-2.49C26.33,27.78,26.12,27.6,25.93,27.43z M27.09,21.7
	c-0.05-2.89-2.24-4.9-5.24-4.85c-2.7,0.05-4.79,2.3-4.73,5.09c0.05,2.66,2.39,4.9,5.04,4.83C24.99,26.69,27.14,24.49,27.09,21.7z"/>
<path d="M14.69,17.28c-1.09,1.67-1.3,3.42-1.13,5.44c-1.17-0.18-2.29-0.29-3.37-0.54c-1.35-0.31-2.6-0.87-3.63-1.82
	c-0.66-0.61-1.02-1.34-0.99-2.28c0.04-1.32,0-2.65-0.02-3.97c-0.01-0.69,0.14-0.8,0.84-0.49c1.98,0.85,3.95,1.73,5.92,2.6
	C13.08,16.55,13.85,16.91,14.69,17.28z"/>
</svg>
